<svg xmlns="http://www.w3.org/2000/svg" width="322" height="44" viewBox="0 0 322 44" fill="none"><g clip-path="url(#clip0_4181_4704)"><path d="M42.9934 6.37732L35.0985 30.859H50.4411L42.9934 6.37732Z" fill="white"></path><path d="M55.8535 0.422729H72.3218V43.2129L55.8535 0.422729Z" fill="white"></path><path d="M0 38.8107C10.959 38.8107 19.8454 30.1229 19.8454 19.409C19.8454 8.69505 10.959 0 0 0" fill="white"></path><path d="M116.538 6.37732L108.643 30.859H123.978L116.538 6.37732Z" fill="white"></path><path d="M103.678 0.422729H87.2096V43.2129L103.678 0.422729Z" fill="white"></path><path d="M167.844 43.14H163.483V36.6897C160.993 41.398 156.162 44.0073 150.459 44.0073C140.126 44.0073 133.953 36.1431 133.953 27.5647C133.953 18.425 140.797 11.1367 150.459 11.1367C157.31 11.1367 161.947 15.0359 163.483 18.5489V12.004H167.844V43.14ZM138.307 27.6594C138.344 33.2423 142.34 40.0351 151.062 40.0351C156.691 40.0351 160.799 36.8282 162.558 32.4625C163.266 30.9173 163.602 29.2192 163.602 27.5064C163.639 25.7863 163.304 24.0735 162.618 22.5503C160.843 18.2647 156.572 15.1161 150.928 15.1161C143.607 15.1161 138.314 20.6334 138.314 27.6084V27.6667L138.307 27.6594Z" fill="white"></path><path d="M176.387 0.328003H180.749V43.14H176.387V0.328003Z" fill="white"></path><path d="M191.7 15.4223H185.46V12.004H191.7V0.328003H196.061V11.9967H203.009V15.415H196.061V43.14H191.7V15.4223Z" fill="white"></path><path d="M238.57 43.14H234.209V36.6897C231.719 41.398 226.888 44.0073 221.185 44.0073C210.852 44.0073 204.679 36.1431 204.679 27.5647C204.679 18.425 211.523 11.1367 221.185 11.1367C228.036 11.1367 232.673 15.0359 234.209 18.5489V12.004H238.57V43.14ZM209.033 27.6594C209.07 33.2423 213.066 40.0351 221.789 40.0351C227.417 40.0351 231.525 36.8282 233.284 32.4625C233.993 30.9173 234.328 29.2192 234.328 27.5064C234.365 25.7863 234.03 24.0735 233.344 22.5503C231.57 18.2647 227.298 15.1161 221.655 15.1161C214.334 15.1161 209.041 20.6334 209.041 27.6084V27.6667L209.033 27.6594Z" fill="white"></path><path d="M247.091 11.9967H251.259V17.0913C253.547 12.4559 257.722 11.246 261.42 11.1294V15.3712H260.988C254.852 15.3712 251.453 19.1393 251.453 26.2018V43.1327H247.091V11.9967Z" fill="white"></path><path d="M267.25 28.7891C267.466 36.6096 274.302 40.3339 279.692 40.2975C284.605 40.2975 288.564 37.9215 290.614 33.8837H295.169C293.693 37.2364 291.419 39.78 288.72 41.4782C286.037 43.1545 282.905 43.9854 279.648 43.9854C268.622 43.9854 262.844 35.3633 262.844 27.6376C262.844 18.5198 270.06 11.1367 279.625 11.1367C284.098 11.1367 288.221 12.7401 291.263 15.568C294.931 19.0154 296.69 23.8185 296.235 28.7891H267.25ZM291.934 25.3709C291.62 19.9192 286.245 14.6351 279.648 14.8246C272.781 14.8246 267.719 19.6859 267.324 25.3709H291.926H291.934Z" fill="white"></path><path d="M316.767 19.8244C316.744 16.5009 314.53 14.6497 311.317 14.6861C307.82 14.6861 305.688 16.9674 305.808 19.686C305.927 22.6378 308.23 23.8914 312.062 24.9555C316.677 26.1872 321.761 27.4627 322 34.1315C322.194 39.8384 317.445 44 311.436 44C306.307 44 300.611 40.8369 300.559 34.2846H304.898C305.032 38.5483 308.29 40.4433 311.473 40.4433C315.149 40.4433 317.713 37.8122 317.639 34.6272C317.557 31.0777 315.171 29.6273 309.692 28.1041C305.114 26.7703 301.566 24.9846 301.446 20.0285C301.446 14.4237 305.979 11.1294 311.362 11.1294C315.842 11.1658 320.8 13.5054 321.076 19.8244H316.774H316.767Z" fill="white"></path></g><defs><clipPath id="clip0_4181_4704"><rect width="322" height="44" fill="white"></rect></clipPath></defs></svg>