<?xml version="1.0" encoding="UTF-8" standalone="no"?>
<!DOCTYPE svg PUBLIC "-//W3C//DTD SVG 1.1//EN" "http://www.w3.org/Graphics/SVG/1.1/DTD/svg11.dtd">
<svg width="100%" height="100%" viewBox="0 0 737 112" version="1.1" xmlns="http://www.w3.org/2000/svg" xmlns:xlink="http://www.w3.org/1999/xlink" xml:space="preserve" xmlns:serif="http://www.serif.com/" style="fill-rule:evenodd;clip-rule:evenodd;stroke-linejoin:round;stroke-miterlimit:2;">
    <g transform="matrix(1,0,0,1,-9.49,-13.07)">
        <path d="M9.49,71.29L9.49,71C9.49,51.85 23.14,36.07 42.67,36.07C65.08,36.07 75.35,53.48 75.35,72.51C75.35,74.01 75.22,75.76 75.1,77.51L28.39,77.51C30.27,86.19 36.28,90.7 44.8,90.7C51.18,90.7 55.8,88.7 61.07,83.81L72,93.46C65.71,101.22 56.69,106 44.55,106C24.39,106 9.49,91.83 9.49,71.29ZM56.82,65.66C55.69,57.15 50.68,51.39 42.67,51.39C34.66,51.39 29.65,57 28.15,65.66L56.82,65.66Z" style="fill:rgb(253,220,50);fill-rule:nonzero;"/>
        <path d="M85.48,85.19L85.48,84.94C85.48,70.29 96.62,63.53 112.48,63.53C118.069,63.48 123.624,64.414 128.89,66.29L128.89,65.16C128.89,57.27 124,52.89 114.49,52.89C107.23,52.89 102.09,54.27 95.96,56.52L91.24,42C99.386,38.256 108.277,36.413 117.24,36.61C127.63,36.61 135.15,39.37 139.91,44.12C144.91,49.12 147.17,56.52 147.17,65.53L147.17,104.47L128.8,104.47L128.8,97.21C124.17,102.35 117.8,105.73 108.52,105.73C95.87,105.73 85.48,98.47 85.48,85.19ZM129.18,80.81L129.18,77.43C125.343,75.744 121.191,74.892 117,74.93C108.86,74.93 103.86,78.18 103.86,84.19L103.86,84.44C103.86,89.57 108.11,92.58 114.25,92.58C123.17,92.58 129.18,87.7 129.18,80.81Z" style="fill:rgb(253,220,50);fill-rule:nonzero;"/>
        <path d="M158.34,95.58L166.48,83.06C173.74,88.32 181.38,91.06 187.64,91.06C193.15,91.06 195.64,89.06 195.64,86.06L195.64,85.81C195.64,81.68 189.13,80.3 181.74,78.05C172.35,75.29 161.74,70.91 161.74,57.89L161.74,57.64C161.74,43.99 172.74,36.35 186.28,36.35C195.184,36.486 203.864,39.18 211.28,44.11L204,57.27C197.41,53.39 190.77,51 185.89,51C181.25,51 178.89,53 178.89,55.63L178.89,55.88C178.89,59.64 185.28,61.39 192.54,63.88C201.93,67.01 212.83,71.51 212.83,83.78L212.83,84.04C212.83,98.94 201.68,105.7 187.16,105.7C176.697,105.63 166.55,102.067 158.34,95.58Z" style="fill:rgb(253,220,50);fill-rule:nonzero;"/>
        <path d="M268.64,37.36L288.42,37.36L262.63,106.1C257.5,119.75 251.99,124.88 240.63,124.88C234.67,124.966 228.805,123.36 223.72,120.25L230.11,106.48C232.56,108.025 235.359,108.929 238.25,109.11C241.5,109.11 243.25,108.11 244.88,104.72L218.56,37.36L238.72,37.36L254,83.06L268.64,37.36Z" style="fill:rgb(253,220,50);fill-rule:nonzero;"/>
        <path d="M297.8,60.9L297.8,60.65C297.8,35.73 316.59,15.33 343.5,15.33C360.03,15.33 369.92,20.84 378.06,28.85L365.79,43C359.03,36.86 352.14,33.11 343.38,33.11C328.6,33.11 318,45.38 318,60.4L318,60.65C318,75.65 328.4,88.2 343.42,88.2C353.42,88.2 359.57,84.2 366.42,77.93L378.69,90.33C369.69,99.97 359.69,105.98 342.75,105.98C317,106 297.8,86.07 297.8,60.9Z" style="fill:white;fill-rule:nonzero;"/>
        <path d="M392.07,37.36L411.07,37.36L411.07,50.89C414.95,41.62 421.21,35.61 432.48,36.11L432.48,56L431.48,56C418.84,56 411.08,63.64 411.08,79.66L411.08,104.45L392.08,104.45L392.07,37.36Z" style="fill:white;fill-rule:nonzero;"/>
        <path d="M439.27,71.29L439.27,71C439.27,51.72 454.8,36.07 475.71,36.07C496.62,36.07 511.89,51.47 511.89,70.75L511.89,71C511.89,90.29 496.37,105.94 475.46,105.94C454.55,105.94 439.27,90.58 439.27,71.29ZM493.11,71.29L493.11,71C493.11,61.11 485.97,52.47 475.46,52.47C464.56,52.47 458.05,60.86 458.05,70.75L458.05,71C458.05,80.9 465.19,89.53 475.71,89.53C486.6,89.57 493.11,81.19 493.11,71.29Z" style="fill:white;fill-rule:nonzero;"/>
        <path d="M517,37.36L536.3,37.36L547.06,78.06L559.71,37.11L576.11,37.11L588.88,78.18L599.88,37.36L618.79,37.36L597.9,105L580.74,105L567.85,63.8L554.7,105L537.7,105L517,37.36Z" style="fill:white;fill-rule:nonzero;"/>
        <path d="M624.8,71L624.8,70.75C624.8,48.34 639.46,36.07 655.35,36.07C665.5,36.07 671.76,40.7 676.27,46.07L676.27,13.07L695.27,13.07L695.27,104.47L676.27,104.47L676.27,94.83C671.63,101.09 665.27,105.73 655.35,105.73C639.7,105.73 624.8,93.46 624.8,71ZM676.52,71L676.52,70.75C676.52,59.61 669.13,52.22 660.24,52.22C651.35,52.22 643.84,59.49 643.84,70.75L643.84,71C643.84,82.15 651.35,89.53 660.24,89.53C669.13,89.53 676.52,82.19 676.52,71Z" style="fill:white;fill-rule:nonzero;"/>
        <path d="M728.56,70.47L729,70.47C738.326,70.47 746,78.144 746,87.47C746,96.796 738.326,104.47 729,104.47L728.58,104.47C719.254,104.47 711.58,96.796 711.58,87.47C711.58,78.152 719.242,70.481 728.56,70.47Z" style="fill:rgb(253,220,50);fill-rule:nonzero;"/>
    </g>
</svg>
