<svg fill="none" fit="" focusable="false" height="100%" preserveaspectratio="xMidYMid meet" viewBox="0 0 606 166" width="100%" xmlns="http://www.w3.org/2000/svg"><g><path d="M31.758 7.817a32.054 32.054 0 0 1 16.272 4.195A30.129 30.129 0 0 1 59.46 23.63a33.922 33.922 0 0 1 4.097 16.55 33.52 33.52 0 0 1-3.802 15.904 30.16 30.16 0 0 1-10.537 11.537 15.912 15.912 0 0 0 4.916 5.53 34.413 34.413 0 0 0 8.685 4.277l-6.44 11.619a34.485 34.485 0 0 1-11.798-6.825 25.62 25.62 0 0 1-7.17-10.062c-1.876.259-3.767.4-5.661.426a31.447 31.447 0 0 1-16.133-4.236A30.414 30.414 0 0 1 4.146 56.642a34.642 34.642 0 0 1 0-32.897 30.644 30.644 0 0 1 11.47-11.692 31.529 31.529 0 0 1 16.142-4.236ZM18.362 25.752c-3.556 3.824-5.334 8.633-5.334 14.429 0 5.795 1.778 10.608 5.334 14.437a18.666 18.666 0 0 0 26.94 0c3.572-3.824 5.358-8.636 5.358-14.437s-1.786-10.61-5.358-14.429a18.666 18.666 0 0 0-26.94 0ZM113.406 25.646v45.498h-12.143v-6.653a17.286 17.286 0 0 1-5.596 5.383 15.29 15.29 0 0 1-7.71 1.794c-4.845 0-8.734-1.447-11.668-4.342-2.933-2.895-4.402-7.08-4.408-12.552V25.645h12.536v26.58c0 2.73.626 4.795 1.877 6.194a6.841 6.841 0 0 0 5.383 2.097 8.512 8.512 0 0 0 6.694-2.827c1.671-1.895 2.507-4.451 2.507-7.669V25.646h12.528ZM123.615 60.796a24.039 24.039 0 0 1-2.892-12.012c0-7.008 2.152-12.785 6.456-17.33 4.304-4.544 9.928-6.819 16.871-6.824 6.401 0 11.391 1.98 14.969 5.94 3.578 3.96 5.372 9.64 5.383 17.042v4.916h-30.938c1.376 5.567 5.178 8.35 11.405 8.35a15.14 15.14 0 0 0 11.758-5.187l6.39 7.694a26.66 26.66 0 0 1-31.299 5.465 19.665 19.665 0 0 1-8.103-8.054Zm13.003-23.598a10.933 10.933 0 0 0-3.367 6.269h18.795c-.057-2.704-.819-4.802-2.269-6.285-1.45-1.483-3.597-2.229-6.416-2.229a9.759 9.759 0 0 0-6.743 2.245ZM194.013 59.32l2.966 9.554a21.8 21.8 0 0 1-10.364 2.81 14.292 14.292 0 0 1-10.652-4.194c-2.731-2.797-4.097-6.62-4.097-11.471V9.2h12.577V54.7a5.889 5.889 0 0 0 1.442 4.211 5.07 5.07 0 0 0 3.868 1.532 9.425 9.425 0 0 0 4.26-1.122ZM222.658 59.32l2.933 9.554a21.8 21.8 0 0 1-10.364 2.81 14.292 14.292 0 0 1-10.652-4.194c-2.731-2.797-4.097-6.62-4.097-11.471V9.2h12.577V54.7a5.919 5.919 0 0 0 1.442 4.211 5.076 5.076 0 0 0 3.868 1.532 9.453 9.453 0 0 0 4.293-1.122ZM229.753 60.796a24.15 24.15 0 0 1-2.892-12.012c0-7.008 2.155-12.785 6.465-17.33 4.31-4.544 9.933-6.819 16.87-6.824 6.391 0 11.381 1.98 14.97 5.94 3.588 3.96 5.383 9.64 5.383 17.042v4.916h-30.963c1.365 5.567 5.172 8.35 11.421 8.35a15.129 15.129 0 0 0 11.75-5.187l6.399 7.694a26.678 26.678 0 0 1-31.307 5.465 19.67 19.67 0 0 1-8.096-8.054Zm13.012-23.598a10.895 10.895 0 0 0-3.376 6.269h18.796c-.055-2.732-.809-4.826-2.262-6.285-1.453-1.458-3.594-2.201-6.423-2.229a9.754 9.754 0 0 0-6.744 2.245h.009ZM341.914 52.496h-30.938c1.36 5.588 5.164 8.382 11.413 8.382a15.144 15.144 0 0 0 11.749-5.187l6.391 7.694a25.193 25.193 0 0 1-19.14 8.3c-6.964 0-12.566-2.098-16.804-6.293-4.239-4.195-6.356-9.73-6.35-16.608 0-7.008 2.152-12.785 6.456-17.33 4.304-4.544 9.928-6.819 16.87-6.824 6.397 0 11.389 1.98 14.978 5.94 3.589 3.96 5.381 9.64 5.375 17.042v4.884Zm-31.135-9.013h18.796c-.055-2.731-.811-4.826-2.27-6.285-1.458-1.458-3.597-2.2-6.415-2.228a9.98 9.98 0 0 0-6.719 2.204 10.795 10.795 0 0 0-3.409 6.292l.017.017Zm1.163-35.126L337.596 0l3.024 10.799-25.654 7.178-3.024-9.62ZM349.469 25.646h12.2v6.136a16.952 16.952 0 0 1 5.735-5.317 16.258 16.258 0 0 1 8.013-1.794c4.916 0 8.847 1.453 11.791 4.358 2.944 2.907 4.413 7.028 4.408 12.365V71.2h-12.594V43.983c0-2.68-.68-4.712-2.032-6.113a7.638 7.638 0 0 0-5.735-2.097 8.602 8.602 0 0 0-6.661 2.81c-1.694 1.88-2.543 4.487-2.548 7.825V71.16h-12.577V25.646ZM401.669 60.796a24.139 24.139 0 0 1-2.892-12.012c0-7.008 2.152-12.785 6.456-17.33 4.305-4.544 9.931-6.819 16.879-6.824 6.391 0 11.381 1.98 14.969 5.94 3.589 3.96 5.381 9.64 5.375 17.042v4.916h-30.93c1.355 5.567 5.156 8.35 11.405 8.35a15.14 15.14 0 0 0 11.75-5.187l6.399 7.694a26.678 26.678 0 0 1-31.307 5.465 19.668 19.668 0 0 1-8.104-8.054Zm13.011-23.598a10.899 10.899 0 0 0-3.375 6.269h18.796c-.055-2.732-.812-4.826-2.27-6.285-1.458-1.458-3.597-2.201-6.416-2.229a9.736 9.736 0 0 0-6.735 2.245ZM450.011 25.646h12.224v6.915c1.989-4.96 5.993-7.437 12.012-7.432a24.23 24.23 0 0 1 5.924.82l-1.778 11.708a16.31 16.31 0 0 0-5.268-.91 10.12 10.12 0 0 0-7.694 3.008c-1.901 1.999-2.851 4.771-2.851 8.316v23.114h-12.569v-45.54ZM491.216 88.055a22.628 22.628 0 0 1-9.103-10.545l10.807-5.571a13.662 13.662 0 0 0 5.268 6.399 14.455 14.455 0 0 0 8.079 2.376c3.742 0 6.746-.989 9.013-2.966a10.064 10.064 0 0 0 3.392-8.013v-5.916c-2.6 4.233-7.352 6.35-14.257 6.35-6.489 0-11.754-2.117-15.797-6.35-4.042-4.233-6.065-9.696-6.071-16.387a24.947 24.947 0 0 1 2.704-11.708 19.958 19.958 0 0 1 7.71-8.145 22.245 22.245 0 0 1 11.536-2.958c3.139-.07 6.255.56 9.12 1.844 2.333.987 4.24 2.77 5.383 5.03v-5.85h12.093v42.869a22.938 22.938 0 0 1-3.326 12.356 21.95 21.95 0 0 1-9.013 8.193 28.547 28.547 0 0 1-12.897 2.852 27.65 27.65 0 0 1-14.641-3.86Zm7.177-49.16c-2.185 2.119-3.277 4.951-3.277 8.496a11.083 11.083 0 0 0 3.229 8.52 11.085 11.085 0 0 0 8.52 3.23c3.573 0 6.432-1.052 8.579-3.155 2.147-2.103 3.22-4.968 3.22-8.595 0-3.572-1.073-6.41-3.22-8.513-2.147-2.103-5.006-3.154-8.579-3.154a11.666 11.666 0 0 0-8.472 3.138v.032ZM547.21 4.883a7.984 7.984 0 0 1 5.809 2.245 7.897 7.897 0 0 1 0 11.168 7.944 7.944 0 0 1-5.809 2.27 8.194 8.194 0 0 1-5.875-2.27 7.378 7.378 0 0 1-2.376-5.547 7.459 7.459 0 0 1 2.352-5.62 8.19 8.19 0 0 1 5.899-2.246Zm-6.309 66.277V25.646h12.577v45.498l-12.577.016ZM563.663 60.796a24.05 24.05 0 0 1-2.893-12.012c0-7.008 2.155-12.785 6.465-17.33 4.31-4.544 9.933-6.819 16.87-6.824 6.397 0 11.387 1.98 14.97 5.94 3.583 3.96 5.378 9.64 5.383 17.042v4.916h-30.947c1.338 5.567 5.14 8.35 11.405 8.35a15.142 15.142 0 0 0 11.758-5.187l6.391 7.694a26.678 26.678 0 0 1-31.307 5.465 19.66 19.66 0 0 1-8.095-8.054Zm13.003-23.598a10.846 10.846 0 0 0-3.368 6.269h18.796c-.057-2.704-.819-4.802-2.27-6.285-1.45-1.483-3.597-2.229-6.415-2.229a9.757 9.757 0 0 0-6.743 2.245Z" fill="#00B4FF"></path><path d="M8.742 155.307v-33.183h4.417v3.81a7.572 7.572 0 0 1 3.277-3.212 10.522 10.522 0 0 1 4.99-1.155 10.783 10.783 0 0 1 5.9 1.638 10.19 10.19 0 0 1 3.817 4.384 13.741 13.741 0 0 1 1.238 5.866 13.2 13.2 0 0 1-1.303 5.875 10.406 10.406 0 0 1-3.745 4.253 11.055 11.055 0 0 1-5.956 1.638c-1.657.034-3.3-.323-4.793-1.04a8.332 8.332 0 0 1-3.335-2.991v14.183l-4.507-.066Zm4.507-21.933a7.598 7.598 0 0 0 2.056 5.53 6.994 6.994 0 0 0 5.375 2.221 6.658 6.658 0 0 0 5.22-2.221 7.733 7.733 0 0 0 1.974-5.53c.046-2-.612-3.951-1.86-5.515a6.556 6.556 0 0 0-5.334-2.237 7.154 7.154 0 0 0-5.375 2.147 7.957 7.957 0 0 0-2.056 5.605ZM35.715 133.595a13.67 13.67 0 0 1 1.287-5.957 10.654 10.654 0 0 1 3.834-4.392 11.294 11.294 0 0 1 5.381-1.667 11.292 11.292 0 0 1 5.517 1.143 7.766 7.766 0 0 1 3.277 3.277v-3.851h4.416v16.469a2.756 2.756 0 0 0 .713 2.049 2.59 2.59 0 0 0 1.91.704 4.097 4.097 0 0 0 1.974-.557l1.098 3.36a7.456 7.456 0 0 1-4.195 1.278 5.649 5.649 0 0 1-3.728-1.278 4.972 4.972 0 0 1-1.762-3.45 8.298 8.298 0 0 1-3.45 3.531 11.812 11.812 0 0 1-11.07-.376 10.237 10.237 0 0 1-3.85-4.343 13.381 13.381 0 0 1-1.352-5.94Zm4.499-.09a8.243 8.243 0 0 0 2.015 5.694 6.756 6.756 0 0 0 5.269 2.196 6.965 6.965 0 0 0 5.334-2.196 8.972 8.972 0 0 0 0-11.43 7.199 7.199 0 0 0-5.425-2.146 6.37 6.37 0 0 0-5.26 2.236 8.523 8.523 0 0 0-1.933 5.646ZM68.415 122.124h4.417v3.769a6.04 6.04 0 0 1 2.458-3.04 7.293 7.293 0 0 1 3.925-1.04 8.904 8.904 0 0 1 3.277.581l-.738 4.187a7.754 7.754 0 0 0-2.982-.606 5.447 5.447 0 0 0-4.277 1.77 7.184 7.184 0 0 0-1.59 4.973v12.438H68.4l.016-23.032ZM125.287 136.479c-7.571 0-13.929-4.572-13.929-13.929 0-10.012 7.972-14.396 13.716-14.396 3.646 0 6.055 1.483 6.055 4.203 0 3.95-5.736 6.055-11.365 6.055a25.432 25.432 0 0 1-4.277-.336l1.508 8.194c1.609.388 3.26.578 4.916.565 10.438 0 18.345-6.047 18.345-14.945 0-7.497-6.612-12.413-15.068-12.413-13.929 0-23.597 10.652-23.597 23.409 0 14.142 10.545 22.852 22.942 22.852a25.865 25.865 0 0 0 16.805-5.81l-3.827-7.374a20.197 20.197 0 0 1-12.224 3.925ZM175.136 117.765v-4.506c0-3.827 2.777-4.818 5.063-4.818.288-.002.575.015.861.049v-7.833a13.757 13.757 0 0 0-2.835-.246c-6.244 0-12.233 2.843-12.233 12.602v4.752h-9.636v-4.506c0-3.827 2.778-4.818 5.064-4.818.29-.001.58.015.868.049v-7.833a13.969 13.969 0 0 0-2.843-.246c-6.235 0-12.224 2.843-12.224 12.602v4.752H141.1v8.152h6.121v19.206h9.135v-19.206h9.636v19.206h9.144v-19.206h8.365v6.793c0 10.315 6.67 13.036 11.733 13.036 3.171 0 6.449-.959 8.71-3.851v2.736c0 9.079-6.055 12.659-13.47 12.659a24.746 24.746 0 0 1-11.733-2.958v9.185a31.473 31.473 0 0 0 12.29 2.458c11.43 0 21.991-6.046 21.991-21.548v-26.662h-9.078v13.462a6.858 6.858 0 0 1-.819 3.482 5.183 5.183 0 0 1-2.131 2.073 6.632 6.632 0 0 1-3.056.688 5.308 5.308 0 0 1-3.941-1.45 5.564 5.564 0 0 1-1.442-4.138v-14.117h-17.419Z" fill="currentColor"></path></g></svg>