<svg width="290" height="89" viewBox="0 0 290 89" fill="none" xmlns="http://www.w3.org/2000/svg">
<path d="M67.1936 22.8876L22.9235 68.7307C10.263 56.5046 9.91084 36.3308 22.1369 23.6703C34.363 11.0098 54.5331 10.6615 67.1936 22.8876Z" fill="#ECB22D"/>
<path d="M29.6836 66.3838L73.9537 20.5407C86.6142 32.7668 86.9663 52.9406 74.7403 65.6011C62.5141 78.254 42.3402 78.6062 29.6836 66.3838Z" fill="#162040"/>
<path d="M137.027 27.6357H145.127V62.6357H137.027V27.6357ZM121.127 62.6357H113.027V27.6357H121.127V62.6357ZM137.627 48.2857H120.527V41.4357H137.627V48.2857ZM164.958 63.0357C162.724 63.0357 160.724 62.6024 158.958 61.7357C157.224 60.8691 155.874 59.5524 154.908 57.7857C153.941 55.9857 153.458 53.7024 153.458 50.9357V35.7357H161.258V49.7857C161.258 52.0191 161.724 53.6691 162.658 54.7357C163.624 55.7691 164.974 56.2857 166.708 56.2857C167.908 56.2857 168.974 56.0357 169.908 55.5357C170.841 55.0024 171.574 54.2024 172.108 53.1357C172.641 52.0357 172.908 50.6691 172.908 49.0357V35.7357H180.708V62.6357H173.308V55.2357L174.658 57.3857C173.758 59.2524 172.424 60.6691 170.658 61.6357C168.924 62.5691 167.024 63.0357 164.958 63.0357ZM204.584 63.0357C202.217 63.0357 200.184 62.5357 198.484 61.5357C196.784 60.5357 195.484 59.0191 194.584 56.9857C193.684 54.9191 193.234 52.3191 193.234 49.1857C193.234 46.0191 193.701 43.4191 194.634 41.3857C195.601 39.3524 196.934 37.8357 198.634 36.8357C200.334 35.8357 202.317 35.3357 204.584 35.3357C207.117 35.3357 209.384 35.9024 211.384 37.0357C213.417 38.1691 215.017 39.7691 216.184 41.8357C217.384 43.9024 217.984 46.3524 217.984 49.1857C217.984 51.9857 217.384 54.4191 216.184 56.4857C215.017 58.5524 213.417 60.1691 211.384 61.3357C209.384 62.4691 207.117 63.0357 204.584 63.0357ZM188.684 62.6357V25.5357H196.484V41.1857L195.984 49.1357L196.134 57.1357V62.6357H188.684ZM203.234 56.6357C204.534 56.6357 205.684 56.3357 206.684 55.7357C207.717 55.1357 208.534 54.2857 209.134 53.1857C209.767 52.0524 210.084 50.7191 210.084 49.1857C210.084 47.6191 209.767 46.2857 209.134 45.1857C208.534 44.0857 207.717 43.2357 206.684 42.6357C205.684 42.0357 204.534 41.7357 203.234 41.7357C201.934 41.7357 200.767 42.0357 199.734 42.6357C198.701 43.2357 197.884 44.0857 197.284 45.1857C196.684 46.2857 196.384 47.6191 196.384 49.1857C196.384 50.7191 196.684 52.0524 197.284 53.1857C197.884 54.2857 198.701 55.1357 199.734 55.7357C200.767 56.3357 201.934 56.6357 203.234 56.6357Z" fill="#162040"/>
<path d="M224.905 62.6357V35.1357C224.905 32.1024 225.805 29.6857 227.605 27.8857C229.405 26.0524 231.972 25.1357 235.305 25.1357C236.439 25.1357 237.522 25.2524 238.555 25.4857C239.622 25.7191 240.522 26.0857 241.255 26.5857L239.205 32.2357C238.772 31.9357 238.289 31.7024 237.755 31.5357C237.222 31.3691 236.655 31.2857 236.055 31.2857C234.922 31.2857 234.039 31.6191 233.405 32.2857C232.805 32.9191 232.505 33.8857 232.505 35.1857V37.6857L232.705 41.0357V62.6357H224.905ZM220.755 42.3357V36.3357H239.405V42.3357H220.755ZM244.53 62.6357V25.5357H252.33V62.6357H244.53ZM273.119 63.0357C270.252 63.0357 267.702 62.4357 265.469 61.2357C263.269 60.0357 261.519 58.4024 260.219 56.3357C258.952 54.2357 258.319 51.8524 258.319 49.1857C258.319 46.4857 258.952 44.1024 260.219 42.0357C261.519 39.9357 263.269 38.3024 265.469 37.1357C267.702 35.9357 270.252 35.3357 273.119 35.3357C275.952 35.3357 278.485 35.9357 280.719 37.1357C282.952 38.3024 284.702 39.9191 285.969 41.9857C287.235 44.0524 287.869 46.4524 287.869 49.1857C287.869 51.8524 287.235 54.2357 285.969 56.3357C284.702 58.4024 282.952 60.0357 280.719 61.2357C278.485 62.4357 275.952 63.0357 273.119 63.0357ZM273.119 56.6357C274.419 56.6357 275.585 56.3357 276.619 55.7357C277.652 55.1357 278.469 54.2857 279.069 53.1857C279.669 52.0524 279.969 50.7191 279.969 49.1857C279.969 47.6191 279.669 46.2857 279.069 45.1857C278.469 44.0857 277.652 43.2357 276.619 42.6357C275.585 42.0357 274.419 41.7357 273.119 41.7357C271.819 41.7357 270.652 42.0357 269.619 42.6357C268.585 43.2357 267.752 44.0857 267.119 45.1857C266.519 46.2857 266.219 47.6191 266.219 49.1857C266.219 50.7191 266.519 52.0524 267.119 53.1857C267.752 54.2857 268.585 55.1357 269.619 55.7357C270.652 56.3357 271.819 56.6357 273.119 56.6357Z" fill="#ECB22D"/>
</svg>
