<svg width="485" height="278" viewBox="0 0 485 278" fill="none" xmlns="http://www.w3.org/2000/svg">
<path fill-rule="evenodd" clip-rule="evenodd" d="M197.748 146.088C204.668 151.363 212.751 154 221.997 154C225.365 154 228.549 153.606 231.55 152.818C234.55 152.09 237.551 150.756 240.551 148.816C243.613 146.876 246.338 144.42 248.726 141.449C251.114 138.418 253.257 134.537 255.155 129.808C257.049 125.18 258.513 119.901 259.549 113.971C259.612 113.611 259.925 113.347 260.293 113.347C260.738 113.347 261.086 113.73 261.041 114.171L257.413 151.426C257.286 152.657 258.257 153.726 259.5 153.726H299.259C300.417 153.726 301.357 152.792 301.357 151.639V2.08778C301.357 0.934729 300.417 0 299.259 0H260.927C259.769 0 258.829 0.934726 258.829 2.08777V54.7094C258.829 54.8146 258.837 54.9197 258.853 55.0237L262.78 80.6822C262.876 81.3117 262.386 81.8788 261.747 81.8788C261.192 81.8788 260.735 81.4476 260.699 80.8969C260.366 75.8277 259.682 71.2135 258.646 67.0544C257.544 62.5676 256.196 58.8388 254.604 55.8679C253.073 52.8363 251.236 50.1988 249.093 47.9554C246.95 45.7121 244.807 43.9538 242.664 42.6805C240.52 41.4072 238.163 40.4068 235.591 39.6792C233.019 38.891 230.692 38.3757 228.61 38.1331C226.528 37.8906 224.324 37.7693 221.997 37.7693C212.812 37.7693 204.76 40.4371 197.84 45.7727C190.982 51.1083 185.808 58.1415 182.317 66.8725C178.888 75.6034 177.174 85.3348 177.174 96.0666C177.174 106.798 178.888 116.499 182.317 125.17C185.747 133.84 190.89 140.813 197.748 146.088ZM257.727 109.436C253.441 112.285 247.869 113.71 241.01 113.71C234.213 113.71 228.672 112.285 224.385 109.436C220.16 106.525 218.048 102.312 218.048 96.7941C218.048 91.1554 220.16 86.9112 224.385 84.0615C228.61 81.2118 234.152 79.787 241.01 79.787C247.869 79.787 253.441 81.2118 257.727 84.0615C262.014 86.9112 264.157 91.1554 264.157 96.7941C264.157 102.312 262.014 106.525 257.727 109.436Z" fill="#6D092A"/>
<path fill-rule="evenodd" clip-rule="evenodd" d="M374.466 154C365.036 154 356.31 152.515 348.289 149.544C340.267 146.512 333.531 142.389 328.082 137.175C322.693 131.96 318.468 125.776 315.406 118.621C312.344 111.467 310.814 103.827 310.814 95.7028C310.814 87.76 312.222 80.2417 315.039 73.1478C317.855 66.0539 321.774 59.8998 326.796 54.6855C331.817 49.4712 337.971 45.3483 345.258 42.3167C352.606 39.2851 360.566 37.7693 369.139 37.7693C376.365 37.7693 383.162 38.8304 389.53 40.9525C395.96 43.014 401.624 45.9849 406.522 49.8653C411.421 53.7458 415.279 58.7175 418.096 64.7807C420.974 70.8438 422.413 77.6043 422.413 85.0619C422.413 88.6626 422.028 92.7633 421.258 97.3643C421.086 98.3936 420.162 99.1241 419.115 99.0776L353.765 96.1752C352.48 96.1181 351.437 97.22 351.712 98.4706C352.797 103.395 355.483 107.141 359.77 109.709C364.791 112.619 371.068 114.074 378.6 114.074C392.099 114.074 403.968 110.521 414.206 103.414C414.526 103.192 414.907 103.069 415.298 103.069C416.336 103.069 417.177 103.907 417.177 104.94V143.094C417.177 143.823 416.797 144.503 416.16 144.863C411.597 147.445 405.843 149.581 398.899 151.272C391.428 153.091 383.284 154 374.466 154ZM354.395 83.0129C353.532 84.3025 354.613 85.8775 356.167 85.7974L381.831 84.4755C383.211 84.4044 384.15 83.0327 383.433 81.8565C382.435 80.2178 381.038 78.861 379.243 77.7862C376.671 76.1491 373.517 75.3306 369.782 75.3306C366.108 75.3306 362.74 76.2401 359.678 78.059C357.546 79.2838 355.784 80.9351 354.395 83.0129Z" fill="#6D092A"/>
<path d="M2.06725 143.386C16.52 150.462 33.5582 154 53.1818 154C71.6133 154 86.1257 150.241 96.7192 142.723C107.313 135.144 112.609 123.684 112.609 108.344C112.609 103.615 111.783 99.3407 110.13 95.5209C108.537 91.7011 106.333 88.5482 103.516 86.0624C100.761 83.5158 97.5765 81.2725 93.9637 79.3322C90.4121 77.392 86.6462 75.8459 82.666 74.6939C78.747 73.5419 74.7974 72.5415 70.8172 71.6927C66.8982 70.8438 63.1323 70.1163 59.5195 69.5099C55.968 68.9036 52.7838 68.3276 49.967 67.7819C47.2115 67.1756 45.0071 66.4784 43.3537 65.6902C41.7616 64.8413 40.9656 63.8409 40.9656 62.6889C40.9656 59.4754 45.3745 57.8687 54.1922 57.8687C63.316 57.8687 72.4093 59.7786 81.472 63.5984C90.2917 67.2568 97.9516 72.0637 104.452 78.0192C104.796 78.3351 105.247 78.5137 105.716 78.5137C106.733 78.5137 107.558 77.6929 107.558 76.6803V35.3379C107.558 34.6409 107.208 33.9879 106.622 33.6074C91.7327 23.9526 75.0523 19.1251 56.5803 19.1251C49.171 19.1251 42.0984 20.0346 35.3627 21.8536C28.6882 23.6725 22.6872 26.31 17.3599 29.766C12.0937 33.1613 7.86858 37.5874 4.68441 43.0443C1.56147 48.4405 0 54.5036 0 61.2337C0 65.7205 0.765426 69.8434 2.29628 73.6026C3.88836 77.3617 6.00094 80.5449 8.63401 83.152C11.3283 85.6986 14.39 88.0329 17.8191 90.155C21.2482 92.2771 24.8304 94.0051 28.5657 95.339C32.3622 96.6729 36.1587 97.8855 39.9552 98.9769C43.7518 100.008 47.3646 100.887 50.7937 101.614C54.2228 102.342 57.2539 103.039 59.8869 103.706C62.5812 104.312 64.6938 105.01 66.2247 105.798C67.8168 106.525 68.6128 107.314 68.6128 108.163C68.6128 109.618 67.5106 110.77 65.3062 111.619C63.163 112.407 60.1931 112.801 56.3966 112.801C35.1812 112.801 18.0294 106.193 4.94128 92.9763C4.54045 92.5716 3.99424 92.3377 3.42321 92.3377H3.01625C1.8577 92.3377 0.918511 93.2724 0.918511 94.4255V141.535C0.918511 142.319 1.35962 143.04 2.06725 143.386Z" fill="#6D092A"/>
<path d="M126.942 60.9273C125.173 59.8928 122.718 61.0706 122.718 63.1129V152.667C122.718 153.403 123.323 154 124.069 154H166.467C167.214 154 167.819 153.403 167.819 152.667V63.1804C167.819 61.1284 165.339 59.9493 163.563 60.9925C158.254 64.1123 152.094 65.5603 145.401 65.5603C138.602 65.5603 132.347 64.0876 126.942 60.9273Z" fill="#6D092A"/>
<path d="M127.429 51.3746C132.029 55.7664 138.02 57.9623 145.404 57.9623C152.728 57.9623 158.629 55.7664 163.108 51.3746C167.647 46.9828 169.917 41.554 169.917 35.0883C169.917 28.6835 167.617 23.2548 163.017 18.802C158.478 14.2882 152.607 12.0312 145.404 12.0312C138.141 12.0312 132.18 14.2882 127.52 18.802C122.92 23.2548 120.62 28.6835 120.62 35.0883C120.62 41.493 122.889 46.9218 127.429 51.3746Z" fill="#6D092A"/>
<path d="M102.507 150.877L102.538 150.855C105.798 148.523 108.642 145.909 111.085 143.038C111.632 143.054 112.176 143.075 112.718 143.101V152.667C112.718 159.055 117.93 164 124.069 164H149.069V202.721C149.069 203.793 148.196 204.662 147.118 204.662C146.603 204.662 146.109 204.458 145.74 204.099C139.46 197.978 133.497 193.77 127.851 191.475C122.095 189.05 115.512 187.837 108.103 187.837C98.6731 187.837 91.2944 189.838 85.9671 193.84C80.6397 197.841 77.976 203.359 77.976 210.392C77.976 217.425 80.6703 223.034 86.0589 227.217C91.4475 231.401 98.7956 233.493 108.103 233.493C115.512 233.493 122.126 232.31 127.943 229.946C133.587 227.593 139.52 223.384 145.74 217.321C146.109 216.962 146.603 216.758 147.118 216.758C148.196 216.758 149.069 217.627 149.069 218.7V265.59C149.069 266.278 148.731 266.924 148.151 267.296C144.077 269.906 138.658 272.28 131.893 274.419C124.667 276.723 116.86 277.875 108.471 277.875C97.5096 277.875 87.4673 276.147 78.3434 272.691C69.2195 269.174 61.5652 264.384 55.3806 258.321C49.2572 252.258 44.481 245.104 41.0518 236.858C37.684 228.551 36 219.669 36 210.21C36 200.933 37.684 192.202 41.0518 184.017C44.2292 176.433 48.5631 169.76 54.0535 163.997C73.3456 163.881 89.838 159.869 102.507 150.877Z" fill="#6D092A"/>
<path fill-rule="evenodd" clip-rule="evenodd" d="M180.019 276.056C184.305 277.269 188.928 277.875 193.888 277.875C206.686 277.875 216.729 273.631 224.016 265.142C231.164 256.815 235.072 244.285 235.738 227.554C235.759 227.013 236.205 226.581 236.749 226.581C237.353 226.581 237.821 227.106 237.749 227.704L232.374 274.054V275.513C232.374 276.666 233.313 277.601 234.472 277.601H272.987C274.146 277.601 275.085 276.666 275.085 275.513V215.394C275.085 199.024 269.696 185.988 258.919 176.287C248.142 166.525 233.538 161.644 215.106 161.644C206.411 161.644 197.96 162.614 189.755 164.555C182.145 166.311 175.444 168.491 169.652 171.094C168.913 171.426 168.446 172.164 168.446 172.971V212.077C168.446 213.105 169.283 213.939 170.317 213.939C170.712 213.939 171.097 213.813 171.42 213.585C176.337 210.108 182.143 207.255 188.837 205.026C195.817 202.661 202.614 201.479 209.228 201.479C221.229 201.479 228.657 204.126 231.511 209.419C231.598 209.579 231.639 209.759 231.639 209.94C231.639 210.655 230.998 211.2 230.287 211.098C224.515 210.263 218.505 209.846 212.259 209.846C206.748 209.846 201.512 210.21 196.552 210.938C191.592 211.605 186.663 212.817 181.764 214.576C176.927 216.334 172.763 218.547 169.272 221.215C165.782 223.882 162.935 227.369 160.73 231.674C158.587 235.978 157.515 240.859 157.515 246.316C157.515 251.773 158.495 256.593 160.455 260.777C162.414 264.9 165.108 268.174 168.537 270.599C171.967 273.024 175.794 274.843 180.019 276.056ZM222.454 241.041C219.148 244.861 214.8 246.771 209.411 246.771C206.35 246.771 203.778 246.074 201.696 244.679C199.614 243.224 198.573 241.162 198.573 238.495C198.573 235.16 200.226 232.31 203.533 229.946C206.839 227.581 212.32 226.399 219.974 226.399H225.962C227.189 226.399 228.161 227.444 227.975 228.651C227.223 233.537 225.382 237.667 222.454 241.041Z" fill="#6D092A"/>
<path d="M326.37 277.601C327.528 277.601 328.467 276.666 328.467 275.513V243.224C328.467 231.219 330.396 222.276 334.254 216.394C338.173 210.513 343.47 207.573 350.144 207.573C354.846 207.573 358.804 209.043 362.02 211.985C362.362 212.298 362.805 212.484 363.269 212.484C364.238 212.484 365.024 211.702 365.024 210.737V163.732C365.024 162.579 364.084 161.639 362.926 161.684C357.57 161.892 352.912 162.91 348.95 164.736C344.541 166.737 340.561 170.224 337.009 175.195C333.519 180.106 330.702 186.837 328.559 195.386C326.462 203.75 324.893 214.146 323.851 226.574C323.812 227.039 323.421 227.399 322.952 227.399C322.415 227.399 321.998 226.935 322.057 226.404L328.761 164.144C328.898 162.908 327.926 161.827 326.676 161.827H286.568C285.41 161.827 284.471 162.762 284.471 163.915V275.513C284.471 276.666 285.41 277.601 286.568 277.601H326.37Z" fill="#6D092A"/>
<path fill-rule="evenodd" clip-rule="evenodd" d="M409.936 273.418C417.957 276.389 426.683 277.875 436.113 277.875C444.931 277.875 453.075 276.965 460.546 275.146C467.49 273.456 473.244 271.32 477.807 268.738C478.444 268.378 478.824 267.698 478.824 266.969V228.815C478.824 227.782 477.983 226.944 476.945 226.944C476.554 226.944 476.173 227.067 475.853 227.289C465.615 234.396 453.746 237.949 440.247 237.949C432.715 237.949 426.438 236.494 421.417 233.584C417.13 231.015 414.444 227.269 413.359 222.346C413.084 221.095 414.127 219.993 415.412 220.05L480.762 222.952C481.809 222.999 482.733 222.268 482.905 221.239C483.675 216.638 484.06 212.537 484.06 208.937C484.06 201.479 482.621 194.719 479.743 188.656C476.926 182.592 473.068 177.621 468.169 173.74C463.271 169.86 457.607 166.889 451.177 164.827C444.809 162.705 438.012 161.644 430.786 161.644C422.213 161.644 414.253 163.16 406.905 166.192C399.618 169.223 393.464 173.346 388.443 178.56C383.421 183.775 379.502 189.929 376.686 197.023C373.869 204.117 372.46 211.635 372.46 219.578C372.46 227.702 373.991 235.342 377.053 242.496C380.115 249.651 384.34 255.835 389.728 261.05C395.178 266.264 401.914 270.387 409.936 273.418ZM417.814 209.672C416.26 209.752 415.179 208.177 416.042 206.888C417.431 204.81 419.193 203.159 421.325 201.934C424.387 200.115 427.755 199.205 431.429 199.205C435.164 199.205 438.318 200.024 440.89 201.661C442.685 202.736 444.082 204.093 445.08 205.731C445.796 206.908 444.858 208.279 443.478 208.35L417.814 209.672Z" fill="#6D092A"/>
</svg>
