<svg version="1.1" id="Layer_1" xmlns:x="ns_extend;" xmlns:i="ns_ai;" xmlns:graph="ns_graphs;" xmlns="http://www.w3.org/2000/svg" xmlns:xlink="http://www.w3.org/1999/xlink" x="0px" y="0px" viewBox="0 0 209.3 42" style="enable-background:new 0 0 209.3 42;" xml:space="preserve">
 <style type="text/css">
  .st0{fill:#0032FA;}
 </style>
 <metadata>
  <sfw xmlns="ns_sfw;">
   <slices>
   </slices>
   <sliceSourceBounds bottomLeftOrigin="true" height="42" width="209.3" x="59.2" y="-181.7">
   </sliceSourceBounds>
  </sfw>
 </metadata>
 <g>
  <g>
   <path class="st0" d="M40.8,14H23.3v4.7h-4.7v3.5c0,0.6-0.5,1.2-1.2,1.2H4.7v-4.7H1.2c-0.6,0-1.2-0.5-1.2-1.2V0h3.5
			c0.6,0,1.2,0.5,1.2,1.2v17.5h4.7V1.2C9.3,0.5,9.9,0,10.5,0h2.3C13.5,0,14,0.5,14,1.2v17.5h4.7V5.8c0-0.6,0.5-1.2,1.2-1.2h3.5v4.7
			h17.5c0.6,0,1.2,0.5,1.2,1.2v2.3C42,13.5,41.5,14,40.8,14z M40.8,37.3H28v-4.7h-3.5c-0.6,0-1.2,0.5-1.2,1.2v7
			c0,0.6,0.5,1.2,1.2,1.2H42v-3.5C42,37.9,41.5,37.3,40.8,37.3z M17.5,28H4.7v-4.7H1.2c-0.6,0-1.2,0.5-1.2,1.2V42h18.7v-3.5
			c0-0.6-0.5-1.2-1.2-1.2H4.7v-4.7h12.8c0.6,0,1.2-0.5,1.2-1.2v-2.3C18.7,28.5,18.1,28,17.5,28L17.5,28z M24.5,0
			c-0.6,0-1.2,0.5-1.2,1.2v3.5h17.5c0.6,0,1.2-0.5,1.2-1.2V0H24.5z M40.8,18.7H23.3v3.5c0,0.6,0.5,1.2,1.2,1.2h12.8V28h3.5
			c0.6,0,1.2-0.5,1.2-1.2v-7C42,19.2,41.5,18.7,40.8,18.7L40.8,18.7z M37.3,31.5V28h-8.2c-0.6,0-1.2,0.5-1.2,1.2v3.5h8.2
			C36.8,32.7,37.3,32.1,37.3,31.5z">
   </path>
  </g>
  <g>
   <path class="st0" d="M81.5,23.4L78.8,13h-3.5l-2.9,10.4L69.5,13H65l4.8,15.5h4.3l2.8-9.8l2.7,9.8h1.8c1.3,0,2.6-0.8,2.9-2.1
			L88.5,13h-4.2L81.5,23.4z">
   </path>
   <path class="st0" d="M102,14.5c-0.7-0.6-1.4-1.1-2.3-1.4c-0.8-0.4-1.8-0.5-2.9-0.5c-1.1,0-2.1,0.2-3.2,0.6
			c-0.9,0.4-1.8,0.9-2.6,1.5c-0.7,0.7-1.3,1.5-1.6,2.6c-0.4,1.1-0.6,2-0.6,3.4v0.2c0,1.2,0.2,2.2,0.6,3.4c0.4,0.9,0.9,1.8,1.6,2.3
			c0.7,0.7,1.5,1.2,2.6,1.5c0.9,0.4,2,0.5,3.2,0.5c2,0,3.9-0.5,5.2-1.3c1.2-0.8,2-2.1,2.2-4H102c-0.9,0-1.8,0.4-2.3,1.1
			c-0.1,0.1-0.2,0.4-0.5,0.5c-0.5,0.4-1.2,0.6-2.2,0.6c-1.2,0-2-0.4-2.8-1.1c-0.6-0.7-0.9-1.6-1.1-3h11.3v-1.2
			c0-1.3-0.2-2.5-0.6-3.6C103.4,15.9,102.8,15.1,102,14.5z M93.2,18.9c0.1-1.1,0.5-1.9,1.2-2.6c0.6-0.6,1.4-0.8,2.3-0.8
			s1.8,0.2,2.3,0.8c0.6,0.6,0.9,1.5,1.1,2.6H93.2z">
   </path>
   <path class="st0" d="M119,14.5c-0.7-0.6-1.4-1.1-2.3-1.4c-0.8-0.4-1.8-0.5-2.9-0.5s-2.1,0.2-3.2,0.6c-1.1,0.4-1.8,0.9-2.6,1.5
			c-0.7,0.7-1.3,1.5-1.6,2.6c-0.4,0.9-0.6,2-0.6,3.4v0.2c0,1.2,0.2,2.2,0.6,3.4c0.4,0.9,0.9,1.8,1.6,2.3c0.7,0.7,1.5,1.2,2.6,1.5
			c0.9,0.4,2,0.5,3.2,0.5c2,0,3.9-0.5,5.2-1.3c1.2-0.8,2-2.1,2.2-4H119c-0.9,0-1.8,0.4-2.3,1.1c-0.1,0.1-0.2,0.4-0.5,0.5
			c-0.5,0.4-1.2,0.6-2.2,0.6c-1.2,0-2-0.4-2.8-1.1c-0.6-0.7-0.9-1.6-1.1-3h11.1v-1.2c0-1.3-0.2-2.5-0.6-3.6
			C120.3,15.9,119.8,15.1,119,14.5z M110.2,18.9c0.1-1.1,0.5-1.9,1.2-2.6c0.6-0.6,1.4-0.8,2.3-0.8s1.8,0.2,2.3,0.8
			c0.6,0.6,0.8,1.4,0.9,2.6H110.2z">
   </path>
   <path class="st0" d="M132,25.1h-4.3l7.7-11.7V13h-13.1v0.1c0,1.6,1.3,3,3,3h3.9l-7.7,11.7v0.5h13.6v-0.1
			C135.2,26.6,133.9,25.1,132,25.1z">
   </path>
   <path class="st0" d="M148.7,14.5c-0.7-0.6-1.4-1.1-2.3-1.4c-0.8-0.4-1.8-0.5-2.9-0.5c-1.1,0-2.1,0.2-3.2,0.6
			c-0.9,0.4-1.8,0.9-2.6,1.5c-0.7,0.7-1.3,1.5-1.6,2.6c-0.4,0.9-0.6,2-0.6,3.4v0.2c0,1.2,0.2,2.2,0.6,3.4c0.4,0.9,0.9,1.8,1.6,2.3
			c0.7,0.7,1.5,1.2,2.6,1.5c0.9,0.4,2,0.5,3.2,0.5c2,0,3.9-0.5,5.2-1.3c1.2-0.8,2-2.1,2.2-4h-2.1c-0.9,0-1.8,0.4-2.3,1.1
			c-0.1,0.1-0.2,0.4-0.5,0.5c-0.5,0.4-1.2,0.6-2.2,0.6c-1.2,0-2-0.4-2.8-1.1c-0.6-0.7-0.9-1.6-1.1-3H151v-1.2
			c-0.1-1.3-0.4-2.5-0.7-3.6C149.8,15.9,149.2,15.1,148.7,14.5z M139.8,18.9c0.1-1.1,0.5-1.9,1.2-2.6c0.6-0.6,1.4-0.8,2.3-0.8
			c0.9,0,1.8,0.2,2.3,0.8c0.6,0.6,0.8,1.4,0.9,2.6C146.6,18.9,139.8,18.9,139.8,18.9z">
   </path>
   <path class="st0" d="M162.7,13l-3.6,11l-3.8-11.1h-4.7l5.6,15.5h2.7c1.3,0,2.3-0.8,2.9-2l4.9-13.5C166.9,13,162.7,13,162.7,13z">
   </path>
   <path class="st0" d="M180.1,14.5c-0.7-0.6-1.4-1.1-2.3-1.4c-0.8-0.4-1.8-0.5-2.9-0.5c-1.1,0-2.1,0.2-3.2,0.6
			c-0.9,0.4-1.8,0.9-2.6,1.5c-0.7,0.7-1.3,1.5-1.6,2.6c-0.2,0.9-0.5,2-0.5,3.3v0.2c0,1.2,0.2,2.2,0.6,3.4c0.4,0.9,0.9,1.8,1.6,2.3
			c0.7,0.7,1.5,1.2,2.6,1.5c0.9,0.4,2,0.5,3.2,0.5c2,0,3.9-0.5,5.2-1.3c1.2-0.8,2-2.1,2.2-4h-2.1c-0.9,0-1.8,0.4-2.3,1.1
			c-0.1,0.1-0.2,0.4-0.5,0.5c-0.5,0.4-1.2,0.6-2.2,0.6c-1.2,0-2-0.4-2.8-1.1c-0.6-0.7-0.9-1.6-1.1-3h11.3v-1.2
			c-0.1-1.2-0.4-2.3-0.8-3.5C181.2,15.9,180.7,15.1,180.1,14.5z M171.2,18.9c0.1-1.1,0.5-1.9,1.2-2.6c0.6-0.6,1.4-0.8,2.3-0.8
			s1.8,0.2,2.3,0.8c0.6,0.6,0.8,1.4,0.9,2.6H171.2z">
   </path>
   <path class="st0" d="M195.4,13c-0.6-0.2-1.3-0.4-2-0.4c-1.3,0-2.2,0.2-3.2,0.8s-1.4,1.2-1.8,1.9c0-1.3-1.1-2.3-2.3-2.3h-1.8v15.5
			h4.3v-8.9c0-1.1,0.4-1.9,0.9-2.6c0.6-0.6,1.3-0.8,2.2-0.8s1.5,0.2,2,0.7c0.5,0.5,0.6,1.3,0.6,2.2v9.3h4.3v-9.7
			C198.8,17.6,198.6,13.8,195.4,13z">
   </path>
   <path class="st0" d="M208.6,25.1c-0.2,0-0.6,0.1-0.8,0.1c-0.6,0-0.9-0.1-1.3-0.5c-0.2-0.4-0.5-0.7-0.5-1.3V16h0.2c1.6,0,3-1.3,3-3
			h-3.4V9.6h-4.3v3.5h-1.9v3h1.9V24c0,1.5,0.4,2.8,1.2,3.8c0.8,0.8,2,1.2,3.9,1.2c0.6,0,1.1,0,1.4-0.1c0.5-0.1,0.8-0.1,1.1-0.2v-3.4
			C209.1,25,208.8,25.1,208.6,25.1z">
   </path>
  </g>
 </g>
</svg>