<?xml version="1.0" encoding="utf-8"?>
<!-- Generator: Adobe Illustrator 19.0.0, SVG Export Plug-In . SVG Version: 6.00 Build 0)  -->
<svg version="1.1" id="layer" xmlns="http://www.w3.org/2000/svg" xmlns:xlink="http://www.w3.org/1999/xlink" x="0px" y="0px"
	 viewBox="-153 -46 652 652" style="enable-background:new -153 -46 652 652;" xml:space="preserve">
<style type="text/css">
	.st0{fill:#008CC7;}
</style>
<path class="st0" d="M151.3,321.2h-8l-11.8-31.9l-8.9-28.3l-9.1,28.5l-11.8,31.8h-8l-26-72.8h8L97.6,313l22.2-64.5h5.2l22.1,64.5
	l21.8-64.5h8L151.3,321.2z"/>
<path class="st0" d="M198.4,224.5c0,7.7-11.7,7.7-11.7,0C186.8,216.9,198.4,216.9,198.4,224.5z M188.9,247.9V321h7.2v-73.1H188.9z"
	/>
<path class="st0" d="M224.3,321.2v-65.9h-14.9v-6.3h14.9v-6.5c0-14.5,5.8-24.9,21.8-24.9c5.5,0,10.3,2,14.5,5.1l-3.5,5.3
	c-3.9-2.4-6.7-3.7-11.2-3.7c-9.1,0-14.5,5.6-14.5,18.3v6.5h24v6.3h-24v65.9h-7V321.2z"/>
<path class="st0" d="M280.5,224.5c0,7.7-11.7,7.7-11.7,0C268.9,216.9,280.5,216.9,280.5,224.5z M271,247.9V321h7.2v-73.1H271z"/>
<path class="st0" d="M305.6,248.2l0.3,12.9c4.6-9.8,14.9-13.8,24.2-13.8c5.5-0.1,10.8,1.3,15.6,4.2l-3.2,5.9
	c-3.8-2.4-8.2-3.4-12.4-3.4c-13.6,0.1-24,11.1-24,24.3v42.5h-7.2v-72.8h6.7V248.2z"/>
<path class="st0" d="M403.8,261.6c-7.3-6.5-14.6-7.7-22.8-7.7c-11.4-0.1-22.2,4.1-21.9,13.5c0.3,9.7,12.9,11.7,22.1,13.2
	c12.9,2.2,30.8,4.4,30.1,21.4c-0.4,16-17.2,20.4-29.9,20.4c-12.8,0-25.6-4.9-31.9-14.6l5.3-4.8c6,8.7,17,12.4,26.7,12.4
	c8.9,0,22.2-2.4,22.8-13.9c0.3-10.5-11.8-12.5-23.8-14.5c-14.2-2.4-28.1-5.1-28.3-19.7c-0.1-14.3,14.2-20.5,29-20.4
	c10.7,0,20,3,27.1,9.7L403.8,261.6z"/>
<path class="st0" d="M441.2,226.3v21.9H466v6h-24.7v44.4c0,9.8,2.1,16.9,13.5,16.9c3.5,0,7.5-1.1,11.2-3l2.5,5.9
	c-4.6,2.2-9.1,3.7-13.8,3.7c-15.5,0-20.5-9.1-20.5-23.5v-44.4h-15.5v-6h15.5V227L441.2,226.3z"/>
<path class="st0" d="M-0.8,293.5c5.1-36.3-20.2-69.7-56.4-74.8c-35.4-4.9-68.2,19.1-74.4,54c0.1-1.8,0.3-3.8,0.6-5.6
	c5.3-38.5,41-65.4,79.6-60c38.5,5.3,65.5,41,60,79.6c-3.5,24.9-19.5,44.8-40.8,54.5C-15.7,331.2-3.6,314.1-0.8,293.5z"/>
<path class="st0" d="M19.5,282.1c5.6-43.3-22.8-83.2-64.4-92.8c2.7,0.1,5.5,0.3,8.3,0.7c46.1,6,78.6,48.2,72.5,94.3
	s-48.2,78.6-94.3,72.5c-2.8-0.4-5.5-0.8-8.2-1.4C-23.7,356.7,13.9,325.4,19.5,282.1z"/>
<path class="st0" d="M-28.5,241.9c0.8,0.7,1.7,1.5,2.5,2.2c-24.3-18.1-58.9-14.3-78.7,9.3c-20.1,24-17.4,59.6,5.9,80.3
	c-1.4-1-2.8-2-4.1-3.1c-24.5-20.5-27.7-57.1-7.2-81.5S-52.9,221.4-28.5,241.9z"/>
</svg>
